<svg xmlns="http://www.w3.org/2000/svg" width="6.667" height="8" viewBox="0 0 6.667 8">
                    <path id="Arrow_-_Left_2" data-name="Arrow - Left 2" d="M7.246,9.246c.038-.039.18-.2.312-.34a14.46,14.46,0,0,1,3.864-2.683A3.078,3.078,0,0,1,12.208,6a1.289,1.289,0,0,1,.6.145,1.249,1.249,0,0,1,.53.6,6.566,6.566,0,0,1,.171.709,15.983,15.983,0,0,1,.161,2.537,18.486,18.486,0,0,1-.142,2.459,5.669,5.669,0,0,1-.227.885A1.19,1.19,0,0,1,12.246,14h-.038a3.253,3.253,0,0,1-.881-.273,14.46,14.46,0,0,1-3.779-2.644,3.773,3.773,0,0,1-.321-.369A1.189,1.189,0,0,1,7,10,1.25,1.25,0,0,1,7.246,9.246Z" transform="translate(-7 -6)" fill="#200e32"></path>
                  </svg>