<svg class="mx-2" xmlns="http://www.w3.org/2000/svg" width="24" height="24" viewBox="0 0 24 24">
                        <path id="Category" d="M5.048,2H9.1a3.058,3.058,0,0,1,3.048,3.073V9.164A3.05,3.05,0,0,1,9.1,12.236H5.048A3.058,3.058,0,0,1,2,9.164V5.073A3.066,3.066,0,0,1,5.048,2Zm0,13.764H9.1a3.051,3.051,0,0,1,3.048,3.073v4.091A3.058,3.058,0,0,1,9.1,26H5.048A3.065,3.065,0,0,1,2,22.928V18.837A3.059,3.059,0,0,1,5.048,15.764ZM22.952,2H18.9a3.058,3.058,0,0,0-3.048,3.073V9.164A3.05,3.05,0,0,0,18.9,12.236h4.056A3.058,3.058,0,0,0,26,9.164V5.073A3.066,3.066,0,0,0,22.952,2ZM18.9,15.764h4.056A3.059,3.059,0,0,1,26,18.837v4.091A3.065,3.065,0,0,1,22.952,26H18.9a3.058,3.058,0,0,1-3.048-3.072V18.837A3.051,3.051,0,0,1,18.9,15.764Z" transform="translate(-2 -2)" fill="#212341" fill-rule="evenodd"></path>
                      </svg>