<svg onclick="hidePopup9bbfd95()" class="position-absolute top-0 end-0 bg-porp me-3 mt-3" xmlns="http://www.w3.org/2000/svg" width="38" height="12" viewBox="0 0 38 12">
              <g id="Group_4143" data-name="Group 4143" transform="translate(-176 -62)">
                <path id="Arrow_-_Left_2" data-name="Arrow - Left 2" d="M7.369,10.869c.057-.058.27-.306.469-.51a21.69,21.69,0,0,1,5.8-4.024A4.616,4.616,0,0,1,14.812,6a1.933,1.933,0,0,1,.9.218,1.874,1.874,0,0,1,.795.9,9.849,9.849,0,0,1,.256,1.064A23.975,23.975,0,0,1,17,11.992a27.728,27.728,0,0,1-.213,3.689,8.5,8.5,0,0,1-.341,1.327A1.785,1.785,0,0,1,14.868,18h-.056a4.879,4.879,0,0,1-1.321-.409,21.691,21.691,0,0,1-5.668-3.966,5.659,5.659,0,0,1-.482-.554A1.783,1.783,0,0,1,7,12.007,1.875,1.875,0,0,1,7.369,10.869Z" transform="translate(169 56)" fill="#919191"></path>
                <path id="Arrow_-_Left_2-2" data-name="Arrow - Left 2" d="M7.369,10.869c.057-.058.27-.306.469-.51a21.69,21.69,0,0,1,5.8-4.024A4.616,4.616,0,0,1,14.812,6a1.933,1.933,0,0,1,.9.218,1.874,1.874,0,0,1,.795.9,9.849,9.849,0,0,1,.256,1.064A23.975,23.975,0,0,1,17,11.992a27.728,27.728,0,0,1-.213,3.689,8.5,8.5,0,0,1-.341,1.327A1.785,1.785,0,0,1,14.868,18h-.056a4.879,4.879,0,0,1-1.321-.409,21.691,21.691,0,0,1-5.668-3.966,5.659,5.659,0,0,1-.482-.554A1.783,1.783,0,0,1,7,12.007,1.875,1.875,0,0,1,7.369,10.869Z" transform="translate(183 56)" fill="#919191"></path>
                <path id="Arrow_-_Left_2-3" data-name="Arrow - Left 2" d="M7.369,10.869c.057-.058.27-.306.469-.51a21.69,21.69,0,0,1,5.8-4.024A4.616,4.616,0,0,1,14.812,6a1.933,1.933,0,0,1,.9.218,1.874,1.874,0,0,1,.795.9,9.849,9.849,0,0,1,.256,1.064A23.975,23.975,0,0,1,17,11.992a27.728,27.728,0,0,1-.213,3.689,8.5,8.5,0,0,1-.341,1.327A1.785,1.785,0,0,1,14.868,18h-.056a4.879,4.879,0,0,1-1.321-.409,21.691,21.691,0,0,1-5.668-3.966,5.659,5.659,0,0,1-.482-.554A1.783,1.783,0,0,1,7,12.007,1.875,1.875,0,0,1,7.369,10.869Z" transform="translate(197 56)" fill="#919191"></path>
              </g>
            </svg>