<svg class="mx-2" xmlns="http://www.w3.org/2000/svg" width="24" height="24" viewBox="0 0 24 24">
                        <path id="Filter_2" data-name="Filter 2" d="M4.554,2H23.446A2.592,2.592,0,0,1,26,4.631V6.469a2.668,2.668,0,0,1-.765,1.876l-7.806,7.9a.7.7,0,0,1-.507.213l-6.536-.02a.709.709,0,0,1-.524-.234L2.689,8.309A2.675,2.675,0,0,1,2,6.509V4.632A2.594,2.594,0,0,1,4.554,2Zm6.182,16.589,5.826.018a.67.67,0,0,1,.657.678v3.277a.959.959,0,0,1-.544.869l-5.288,2.483a.907.907,0,0,1-.886-.066.962.962,0,0,1-.426-.8V19.267A.669.669,0,0,1,10.736,18.589Z" transform="translate(-2 -2)" fill="#212341" fill-rule="evenodd"></path>
                      </svg>