<svg xmlns="http://www.w3.org/2000/svg" width="139" height="26" viewBox="0 0 139 26" fill="none"><g clip-path="url(#clip0_51_769)"><path fill-rule="evenodd" clip-rule="evenodd" d="M16.2936 4.88184L10.0535 11.7445L0.254395 6.79326V9.76403L1.57173 10.4549V20.749L11.9487 25.9996L22.3487 20.772V10.8464L23.666 11.4912V8.58954L16.2936 4.88184ZM20.4305 18.8606L11.9718 23.0519L4.16019 19.183V11.6524L10.6544 14.9226L16.9176 8.0829L20.4074 9.85614L20.4305 18.8606Z" fill="#919191"></path><path fill-rule="evenodd" clip-rule="evenodd" d="M4.76221 4.97431V1.91142L6.49555 0L9.24578 1.38175V4.05315L7.28133 6.24092L4.76221 4.97431Z" fill="#919191"></path><path fill-rule="evenodd" clip-rule="evenodd" d="M15.4146 21.5322V16.65L18.003 15.3604V20.2425L15.4146 21.5322Z" fill="#919191"></path><path fill-rule="evenodd" clip-rule="evenodd" d="M96.9503 19.9202C96.9503 20.6801 96.3263 21.2789 95.5867 21.2789C94.8241 21.2789 94.2231 20.6571 94.2231 19.9202C94.2231 19.1603 94.8472 18.5615 95.5867 18.5615C96.3494 18.5615 96.9503 19.1603 96.9503 19.9202Z" fill="#919191"></path><path d="M27.6646 5.73438H30.3455V11.7911H37.3019V5.73438H39.9828V20.9797H37.3019V14.117H30.3455V20.9797H27.6646V5.73438Z" fill="#919191"></path><path d="M41.3013 15.4528C41.3013 12.0905 43.3351 9.64941 46.8942 9.64941C50.4533 9.64941 52.4871 12.0905 52.4871 15.4528C52.4871 18.8381 50.4533 21.2792 46.8942 21.2792C43.3351 21.2792 41.3013 18.8381 41.3013 15.4528ZM50.0373 15.4528C50.0373 13.5644 49.0666 11.5608 46.8942 11.5608C44.6986 11.5608 43.7511 13.5414 43.7511 15.4528C43.7511 17.3642 44.7217 19.3677 46.8942 19.3677C49.0666 19.3447 50.0373 17.3642 50.0373 15.4528Z" fill="#919191"></path><path d="M53.8709 9.9488H56.182V11.4918H56.2514C56.9909 10.4094 57.8923 9.64941 59.6487 9.64941C60.9892 9.64941 62.2603 10.2251 62.7456 11.4918C63.5545 10.3633 64.6176 9.64941 66.2123 9.64941C68.5465 9.64941 69.9101 10.6627 69.9101 13.3571V20.9798H67.4603V14.5316C67.4603 12.7814 67.3447 11.5608 65.4496 11.5608C63.8087 11.5608 63.0923 12.6432 63.0923 14.5086V20.9798H60.6425V13.8868C60.6425 12.3669 60.1803 11.5608 58.7012 11.5608C57.43 11.5608 56.2745 12.5741 56.2745 14.4165V20.9568H53.8247V9.9488H53.8709Z" fill="#919191"></path><path d="M73.7709 16.0976C73.7709 17.8248 74.7185 19.3677 76.7522 19.3677C78.162 19.3677 79.0171 18.746 79.4563 17.5254H81.7674C81.2358 19.9435 79.1789 21.2792 76.7522 21.2792C73.2856 21.2792 71.3442 18.8611 71.3442 15.4758C71.3442 12.3438 73.4011 9.64941 76.706 9.64941C80.1958 9.64941 82.3451 12.7814 81.9291 16.0976H73.7709ZM79.4563 14.4856C79.3638 12.9426 78.3238 11.5608 76.6829 11.5608C74.9958 11.5608 73.8402 12.8505 73.7709 14.4856H79.4563Z" fill="#919191"></path><path d="M84.9584 17.4329C85.0971 18.8377 86.1602 19.3443 87.4545 19.3443C88.3789 19.3443 89.9736 19.1601 89.9274 17.8935C89.858 16.6038 88.0785 16.4657 86.2989 16.0511C84.4962 15.6596 82.7397 15.0378 82.7397 12.781C82.7397 10.3629 85.3513 9.62598 87.362 9.62598C89.6269 9.62598 91.6838 10.5702 91.9843 13.0113H89.442C89.234 11.8598 88.2634 11.5374 87.2002 11.5374C86.4838 11.5374 85.1895 11.6986 85.1895 12.6658C85.1895 13.8634 86.9922 14.0246 88.7949 14.4391C90.5745 14.8536 92.3772 15.4754 92.3772 17.6632C92.3772 20.2885 89.7194 21.2557 87.4314 21.2557C84.658 21.2557 82.578 20.0122 82.5317 17.4099H84.9584V17.4329Z" fill="#919191"></path><path d="M106.703 13.4262C106.333 11.7911 105.34 10.7779 103.583 10.7779C100.995 10.7779 99.7003 13.1269 99.7003 15.4759C99.7003 17.8248 100.995 20.1738 103.583 20.1738C105.247 20.1738 106.634 18.8612 106.796 17.0418H108.136C107.766 19.6902 106.033 21.3023 103.583 21.3023C100.209 21.3023 98.3599 18.6309 98.3599 15.4759C98.3599 12.3208 100.209 9.64941 103.583 9.64941C105.94 9.64941 107.766 10.916 108.067 13.4262H106.703Z" fill="#919191"></path><path d="M119.279 15.4759C119.279 18.6309 117.43 21.3023 114.056 21.3023C110.681 21.3023 108.833 18.6309 108.833 15.4759C108.833 12.3208 110.681 9.64941 114.056 9.64941C117.43 9.64941 119.279 12.3208 119.279 15.4759ZM110.173 15.4759C110.173 17.8248 111.467 20.1738 114.056 20.1738C116.644 20.1738 117.938 17.8248 117.938 15.4759C117.938 13.1269 116.644 10.7779 114.056 10.7779C111.444 10.7779 110.173 13.1269 110.173 15.4759Z" fill="#919191"></path><path d="M120.641 9.97182H121.889V11.8372H121.958C122.675 10.5245 123.83 9.64941 125.587 9.64941C127.043 9.64941 128.36 10.3633 128.753 11.8142C129.423 10.3633 130.81 9.64941 132.266 9.64941C134.693 9.64941 135.918 10.916 135.918 13.5183V20.9798H134.577V13.5644C134.577 11.7451 133.884 10.7778 131.966 10.7778C129.631 10.7778 128.961 12.6893 128.961 14.7389V20.9798H127.621V13.5183C127.644 12.0214 127.02 10.7778 125.31 10.7778C122.975 10.7778 122.028 12.5281 122.005 14.831V20.9798H120.664V9.97182H120.641Z" fill="#919191"></path><path d="M138.923 9.67261C138.923 10.4095 138.322 11.0083 137.559 11.0083C136.797 11.0083 136.196 10.4095 136.196 9.67261C136.196 8.93567 136.797 8.33691 137.582 8.33691C138.322 8.33691 138.923 8.93567 138.923 9.67261ZM136.542 9.67261C136.542 10.2714 136.982 10.732 137.582 10.732C138.16 10.732 138.599 10.2714 138.599 9.67261C138.599 9.07385 138.16 8.61326 137.559 8.61326C136.982 8.61326 136.542 9.09688 136.542 9.67261ZM137.351 10.3635H137.051V9.02779C137.166 9.00476 137.351 8.98173 137.559 8.98173C137.814 8.98173 137.929 9.02779 138.022 9.09688C138.114 9.14293 138.16 9.25808 138.16 9.37323C138.16 9.53443 138.045 9.64958 137.883 9.69564V9.71867C138.022 9.76473 138.068 9.85684 138.114 10.0411C138.16 10.2483 138.183 10.3174 138.206 10.3635H137.883C137.837 10.3174 137.814 10.2023 137.767 10.0411C137.744 9.9029 137.652 9.83381 137.49 9.83381H137.351V10.3635ZM137.374 9.62655H137.513C137.675 9.62655 137.814 9.58049 137.814 9.44231C137.814 9.32717 137.721 9.23505 137.536 9.23505C137.467 9.23505 137.398 9.23505 137.374 9.25808V9.62655Z" fill="#919191"></path></g><defs><clipPath id="clip0_51_769"><rect width="138.667" height="26" fill="white" transform="translate(0.254395)"></rect></clipPath></defs></svg>