<svg xmlns="http://www.w3.org/2000/svg" width="111" height="26" viewBox="0 0 111 26" fill="none"><g clip-path="url(#clip0_51_784)"><path fill-rule="evenodd" clip-rule="evenodd" d="M4.59593 5.72703L13.239 8.1467C13.4122 8.19352 13.6344 8.11664 13.7381 7.97155L16.8975 3.57557C16.9219 3.53993 16.9391 3.49974 16.9482 3.45732C16.9573 3.4149 16.958 3.37108 16.9503 3.32838C16.9426 3.28567 16.9267 3.24493 16.9035 3.20849C16.8802 3.17205 16.8501 3.14062 16.8149 3.11603L12.3407 0.0714961C12.2609 0.0229986 12.1693 -0.0017443 12.0763 9.56305e-05C11.9833 0.00193556 11.8927 0.0302841 11.8148 0.0819008L4.54466 5.43685C4.4011 5.54552 4.42502 5.67616 4.59593 5.72703ZM18.6931 1.72237L19.0964 10.812C19.1021 10.9924 19.2457 11.182 19.4126 11.2386L24.5123 12.9277C24.5947 12.9521 24.6832 12.9427 24.7588 12.9017C24.8344 12.8606 24.8912 12.7911 24.9168 12.708L26.3877 7.44785C26.4083 7.35575 26.4029 7.25963 26.3722 7.17049C26.3415 7.08135 26.2866 7.00279 26.214 6.9438L18.9489 1.58307C18.8031 1.47786 18.688 1.54029 18.6931 1.72237ZM26.8024 14.0849L18.4066 17.2838C18.321 17.3207 18.2474 17.3813 18.1942 17.4587C18.141 17.5361 18.1103 17.6271 18.1058 17.7213L18.0989 23.163C18.0996 23.2063 18.1087 23.249 18.1257 23.2887C18.1428 23.3284 18.1674 23.3643 18.1982 23.3943C18.2289 23.4243 18.2653 23.4478 18.305 23.4634C18.3448 23.4791 18.3873 23.4866 18.4299 23.4855L23.8133 23.2786C23.906 23.2706 23.9945 23.2361 24.0687 23.1793C24.1428 23.1224 24.1997 23.0454 24.2326 22.9572L27.0126 14.2901C27.065 14.1155 26.9699 14.023 26.8024 14.0849ZM17.719 25.7347L12.1276 18.6208C12.0182 18.4803 11.7909 18.4092 11.6234 18.4647L6.52029 20.1381C6.47991 20.1524 6.44271 20.1746 6.41082 20.2035C6.37893 20.2324 6.35298 20.2674 6.33445 20.3065C6.31593 20.3456 6.30519 20.388 6.30287 20.4313C6.30054 20.4747 6.30667 20.518 6.3209 20.5589L8.17576 25.6907C8.23843 25.8572 8.43212 25.9942 8.60872 25.9942L17.5919 26C17.7702 25.9971 17.8283 25.8786 17.7184 25.7347H17.719ZM3.71236 20.5294L0.940322 11.8577C0.885063 11.6854 0.953424 11.4565 1.09129 11.3467L5.32796 7.96866C5.3966 7.91588 5.48302 7.89277 5.56838 7.90435C5.65375 7.91594 5.73114 7.96128 5.7837 8.03051L8.92944 12.4398C9.03255 12.5837 9.03768 12.8236 8.93856 12.9727L3.99948 20.5676C3.89807 20.7185 3.76933 20.7005 3.71236 20.53V20.5294Z" fill="#919191"></path><path fill-rule="evenodd" clip-rule="evenodd" d="M108.169 11.3311H108.608L109.258 13.2693L109.903 11.3311H110.338V13.623H110.045V12.2704C110.045 12.2242 110.047 12.1467 110.049 12.0386C110.051 11.93 110.052 11.8138 110.052 11.6901L109.407 13.623H109.104L108.453 11.6901V11.76C108.453 11.8161 108.454 11.9022 108.458 12.0167C108.461 12.1323 108.462 12.2167 108.462 12.271V13.623H108.17L108.169 11.3311ZM107.896 11.3311V11.6045H107.134V13.623H106.826V11.6045H106.065V11.3317L107.896 11.3311ZM71.4237 19.8745C70.1226 19.8745 68.8761 19.3358 68.8761 17.6895V13.7849C69.4572 13.1606 70.4484 12.6404 71.491 12.6404C73.6967 12.6404 74.3974 14.5837 74.3974 16.3889C74.3974 18.6248 73.2171 19.8745 71.4237 19.8745ZM72.1398 11.3224C71.511 11.3246 70.8908 11.471 70.3256 11.7505C69.7603 12.0301 69.2647 12.4357 68.8756 12.9369L68.9605 11.3224H68.3629L65.8842 12.1901V12.6063L67.1654 13.2155V23.1867C67.1654 23.9844 66.5855 24.0705 65.7982 24.1763V24.8532H70.2428V24.1769C69.4578 24.0705 68.8756 23.985 68.8756 23.1861V20.1682C69.4213 20.5861 70.2092 20.8635 71.2346 20.8635C73.9337 20.8635 76.1555 18.8676 76.1555 15.6595C76.1555 13.2664 74.7723 11.3224 72.1398 11.3224ZM90.4372 7.90738C89.2324 7.95825 88.5909 8.149 88.5909 9.31201V20.689H87.7643L79.0551 10.0947V18.5387C79.0551 19.7005 79.6966 19.8913 80.9009 19.9445V20.689H76.0803V19.9445C77.2823 19.8913 77.9237 19.7005 77.9237 18.5387V9.0519C77.2037 8.149 76.9621 7.9253 76.0803 7.90738V7.16171H79.1645L87.4601 17.2462V9.31144C87.4601 8.14958 86.8198 7.95825 85.6155 7.9068V7.16113H90.4372V7.90738ZM104.861 19.7705C104.433 20.2554 103.665 20.8635 102.484 20.8635C101.185 20.8635 100.004 20.1861 100.004 18.3999V12.4513H98.689V11.8432C99.5959 11.2883 100.33 10.6294 101.202 9.51953H101.715V11.4964H104.382V12.4513H101.716V17.7936C101.716 19.0421 102.245 19.5953 103.288 19.5953C103.749 19.5953 104.194 19.5086 104.656 19.2861L104.861 19.7705ZM94.1424 12.3976C95.6805 12.3976 96.4849 13.4051 96.4849 14.6184H91.715C91.903 13.3196 92.7911 12.3976 94.1418 12.3976H94.1424ZM94.9451 19.3537C92.6892 19.3537 91.6632 17.878 91.6632 15.4855H98.3649V14.9999C98.3649 12.919 97.0649 11.3224 94.5685 11.3224C91.9543 11.3224 90.0385 13.3531 90.0385 16.3889C90.0385 18.8676 91.6632 20.8635 94.4147 20.8635C96.8256 20.8635 98.0065 19.4745 98.3802 18.208L97.8846 17.9826C97.3201 18.6947 96.3647 19.3537 94.9451 19.3537ZM44.2217 16.8728H44.8529L44.2217 20.689H33.5266V19.9445C34.8084 19.8913 35.492 19.7005 35.492 18.5387V9.31144C35.492 8.14958 34.8084 7.95825 33.5266 7.9068V7.16113H39.3891V7.9068C38.1068 7.95825 37.4238 8.14958 37.4238 9.31144V18.434C37.4238 19.4745 37.9889 19.7364 39.3891 19.7364H41.0082C42.7161 19.7364 43.1291 18.8861 44.2223 16.8728H44.2217ZM61.1941 19.7878C59.1421 19.7878 57.9469 17.915 57.9469 15.6774C57.9469 13.7849 58.8003 12.3976 60.5093 12.3976C62.5619 12.3976 63.7593 14.271 63.7593 16.5074C63.7593 18.3999 62.9037 19.7878 61.1941 19.7878ZM61.0226 11.3224C58.3907 11.3224 56.1348 13.23 56.1348 16.2658C56.1348 18.9375 57.9811 20.8635 60.6808 20.8635C63.3127 20.8635 65.5703 18.956 65.5703 15.9196C65.5703 13.2485 63.7246 11.3224 61.0226 11.3224ZM50.5975 19.7867C48.5455 19.7867 47.3492 17.915 47.3492 15.6774C47.3492 13.7849 48.2037 12.3976 49.9128 12.3976C51.9636 12.3976 53.1605 14.271 53.1605 16.5074C53.1605 18.3999 52.306 19.7878 50.597 19.7867H50.5975ZM50.4266 11.3224C47.7936 11.3224 45.5365 13.23 45.5365 16.2658C45.5365 18.9375 47.3834 20.8635 50.0825 20.8635C52.7161 20.8635 54.9732 18.956 54.9732 15.9196C54.9732 13.2485 53.1292 11.3224 50.4266 11.3224Z" fill="#919191"></path></g><defs><clipPath id="clip0_51_784"><rect width="109.417" height="26" fill="white" transform="translate(0.921143)"></rect></clipPath></defs></svg>