<svg xmlns="http://www.w3.org/2000/svg" width="138" height="25" viewBox="0 0 138 25" fill="none"><g opacity="0.5" clip-path="url(#clip0_51_764)"><path d="M10.5008 12.7633C9.62639 12.7633 9.18795 12.0645 8.92586 11.4514C8.66377 10.8383 8.75196 10.3157 8.13962 10.3157C7.52727 10.3157 6.04047 12.1502 5.77837 14.599C5.77837 14.8621 5.69025 16.5216 5.69025 17.3966V20.0193C5.69025 20.98 5.60444 22.2038 5.77837 22.9026C5.95231 23.8657 6.2156 23.9526 6.91491 24.3026C7.17701 24.3895 7.26517 24.4764 7.4391 24.4764V24.5645H0.791504V24.4764C0.965438 24.4764 1.05475 24.3895 1.31565 24.3026C2.10312 23.9526 2.27826 23.8657 2.45219 22.9026C2.62732 22.2038 2.54036 20.98 2.54036 20.0193V13.8121V10.9276C2.4522 10.2276 2.27707 10.0538 1.92801 9.7907C1.57656 9.52879 1.22752 9.52879 0.964233 9.44189V9.35379H5.42575C5.60088 9.35379 5.60088 9.44189 5.60088 9.52879V13.5502C6.03691 11.8014 6.91252 10.6645 7.4367 10.1407C7.96208 9.61688 8.83771 9.00498 9.97424 9.00498C10.4984 9.00498 11.1108 9.1788 11.548 9.61689C11.8113 9.87999 12.0733 10.4026 12.0733 11.1026C12.1615 11.9752 11.6385 12.7633 10.5008 12.7633ZM24.5847 15.7347H15.2244C15.2244 19.93 15.7486 22.0288 16.7994 23.2526C17.5856 24.2133 18.3731 24.3883 19.4227 24.3883C22.3093 24.3883 23.796 22.0288 24.4096 19.5812H24.5847C23.9712 22.6395 21.9602 24.7383 18.8985 24.7383C17.1484 24.7383 15.2244 24.3014 13.9116 22.9014C12.5118 21.3288 11.9876 19.4931 11.9876 16.9586C11.9876 12.1502 14.6991 9.0038 18.5483 9.0038C22.9216 9.0038 24.8468 11.9752 24.8468 14.7729C24.6705 15.036 24.6705 15.3847 24.5847 15.7347ZM20.3853 9.8788C19.7729 9.2657 19.2487 9.09188 18.3743 9.09188C17.5868 9.09188 17.0615 9.2657 16.5373 9.8788C15.7498 10.7526 15.3138 12.6764 15.2244 15.4728H20.3853C21.4348 15.4728 21.523 15.4728 21.523 13.899C21.4336 11.8014 20.9107 10.4014 20.3853 9.8788ZM35.2554 24.7383C34.381 24.7383 33.6817 24.7383 33.3314 24.4752C32.8942 24.2121 32.5452 23.5133 32.6309 22.2026C32.2819 23.4264 31.0584 24.7383 28.7829 24.7383C26.6838 24.7383 24.8468 23.5145 24.8468 20.9788C24.8468 20.0181 25.1089 19.2312 25.7212 18.7074C26.8578 17.6586 28.3445 17.5705 29.8313 16.9586C31.8435 16.1717 32.8061 15.2098 32.8061 14.1609V11.4514C32.8061 9.5288 32.2819 9.17878 30.7951 9.17878C30.0076 9.17878 29.5704 9.3526 29.2201 9.7026C28.8711 10.0526 28.696 10.8383 28.696 11.8883C28.696 13.024 28.0836 13.4609 27.1222 13.4609C26.3348 13.4609 25.7224 13.024 25.7224 12.149C25.7224 11.5371 25.8963 11.1002 26.3348 10.6633C27.1222 9.70141 29.3095 9.0907 30.7963 9.0907C33.4208 9.0907 35.9571 10.0526 35.9571 12.5871C35.9571 13.724 35.8689 19.4062 35.8689 21.5038C35.8689 23.0764 35.869 23.6014 36.2204 23.9514C36.3214 24.0593 36.443 24.1459 36.578 24.206C36.7131 24.2661 36.8589 24.2986 37.0067 24.3014C37.3569 24.3014 37.619 24.2133 37.9693 24.0383V24.1264C37.5297 24.3883 36.3931 24.7383 35.2554 24.7383ZM30.3579 16.9586C29.3941 17.4824 28.9569 17.8324 28.6078 18.3574C28.2576 18.9693 27.9955 19.93 27.9955 20.8931C27.9955 22.9026 28.7818 24.0395 30.1828 24.0395C30.4449 24.0395 30.7951 24.0395 31.056 23.8657C31.8435 23.5157 32.544 22.2919 32.544 21.1562V15.2121C32.1067 15.9967 31.3193 16.4336 30.3579 16.9586ZM37.5297 24.3883C37.7048 24.3014 37.9669 24.2133 38.1432 24.1264C38.7556 23.8633 39.0176 23.6895 39.1928 22.7264C39.3667 22.0276 39.3667 20.8919 39.3667 19.8419V4.36927C39.3667 3.75736 39.3667 2.09784 39.2797 1.48594C39.1928 0.785938 39.0177 0.52284 38.6662 0.349031C38.3172 0.0859358 37.9669 0.0859282 37.7048 -0.000976562H42.1651C42.3391 -0.000976562 42.3391 -0.000966682 42.3391 0.262129V20.0181C42.3391 20.9788 42.3391 22.1157 42.4272 22.9014C42.6011 23.8645 42.8644 24.0383 43.6507 24.3014C43.8258 24.3883 43.914 24.3883 44.0879 24.4752V24.5633H37.5273V24.3883H37.5297Z" fill="#919191"></path><path d="M53.7119 22.4647C53.1877 23.6017 51.6116 24.7385 50.0379 24.7385C48.638 24.7385 47.7636 24.5635 46.9773 23.7754C46.365 23.1635 46.0136 22.4635 46.0136 21.154C46.0136 20.4552 46.1017 11.1897 46.1887 9.44092C45.6645 9.44092 44.6149 9.44093 44.0884 9.35283V9.26591C46.2757 8.7421 47.6754 7.60402 49.1634 2.79688H49.2492V9.17783H52.7493V9.35163H49.2492L49.0753 22.1147C49.0753 23.4266 49.4255 24.2124 50.9123 24.2124C52.137 24.2124 53.0996 23.2516 53.5368 22.3778L53.7119 22.4647ZM59.7484 24.7385C56.2494 24.7385 52.4872 21.679 52.4872 16.8707C52.4872 12.0647 56.2494 9.0052 59.7484 9.0052C63.2485 9.0052 67.0965 11.9766 67.0965 16.8707C67.0965 21.679 63.3343 24.7385 59.7484 24.7385ZM62.1108 10.1397C61.4103 9.26592 60.5358 9.09093 59.7484 9.09093C58.9609 9.09093 58.0853 9.35283 57.4741 10.0528C56.4246 11.1897 55.8122 14.0731 55.8122 16.7838C55.8122 19.5814 56.4246 22.2897 57.4741 23.5135C58.1746 24.3873 59.0491 24.5636 59.8353 24.5636C60.6228 24.5636 61.4103 24.3885 62.1966 23.5135C63.1603 22.3778 63.8596 19.5802 63.8596 16.7838C63.7727 14.0731 63.1603 11.3647 62.1108 10.1397ZM76.1923 12.7635C75.3191 12.7635 74.8806 12.0647 74.6197 11.4516C74.3565 10.8385 74.4446 10.3159 73.8311 10.3159C73.2187 10.3159 71.7319 12.1504 71.4698 14.5992C71.4698 14.8623 71.3841 16.5219 71.3841 17.3969V20.0195C71.3841 20.9802 71.2959 22.204 71.4698 22.9028C71.645 23.8659 71.9071 23.9528 72.6076 24.3028C72.8709 24.3897 72.9566 24.4766 73.1318 24.4766V24.5647H66.5711V24.4766C66.745 24.4766 66.8344 24.3897 67.0953 24.3028C67.8828 23.9528 68.0579 23.8659 68.2318 22.9028C68.407 22.204 68.32 20.9802 68.32 20.0195V13.8123V10.9278C68.2318 10.2278 68.0567 10.054 67.7076 9.79092C67.3562 9.52902 67.0072 9.52902 66.7439 9.44211V9.35401H71.2054C71.3805 9.35401 71.3805 9.44211 71.3805 9.52902V13.5505C71.8165 11.8016 72.6922 10.6647 73.2163 10.1409C73.7417 9.6171 74.6173 9.0052 75.7539 9.0052C76.2781 9.0052 76.8904 9.17902 77.3276 9.61712C77.5909 9.88021 77.853 10.4028 77.853 11.1028C77.8566 11.9755 77.33 12.7635 76.1923 12.7635ZM77.8566 25.0004C76.8058 25.0004 75.9314 24.2135 75.9314 23.0778C75.9314 21.9421 76.8058 21.1552 77.8566 21.1552C78.9061 21.1552 79.7794 21.854 79.7794 23.0778C79.6924 24.2135 78.9061 25.0004 77.8566 25.0004ZM87.915 24.7385C85.991 24.7385 84.2409 23.9516 83.1044 22.8159C81.6164 21.329 81.0922 19.2302 81.0922 16.6957C81.0922 11.8885 84.7663 9.00402 88.0031 9.00402C90.1904 9.00402 91.8511 9.78974 92.4646 10.5766C92.9888 11.1897 93.2509 11.7124 93.2509 12.2385C93.2509 13.3743 92.4646 13.8112 91.7641 13.8112C90.5406 13.8112 90.1022 13.0242 90.0141 11.8885C89.752 9.87901 89.4017 9.17901 87.915 9.17901C87.3026 9.17901 86.3412 9.44212 85.8147 10.0528C85.0284 11.0147 84.5911 13.2873 84.5911 16.0838C84.5911 19.5814 85.0284 21.8528 85.904 23.1635C86.6033 24.1266 87.4778 24.3874 88.2652 24.3874C91.5021 24.3874 92.9019 21.5897 93.4261 19.4921H93.6C92.7256 22.4647 90.8885 24.7385 87.915 24.7385ZM100.687 24.7385C97.1871 24.7385 93.4261 21.679 93.4261 16.8707C93.4261 12.0647 97.1871 9.0052 100.687 9.0052C104.186 9.0052 108.034 11.9766 108.034 16.8707C108.034 21.679 104.185 24.7385 100.687 24.7385ZM103.048 10.1397C102.348 9.26592 101.473 9.09093 100.687 9.09093C99.8997 9.09093 99.0241 9.35283 98.4129 10.0528C97.3622 11.1897 96.7498 14.0731 96.7498 16.7838C96.7498 19.5814 97.3622 22.2897 98.4129 23.5135C99.1122 24.3873 99.9867 24.5636 100.774 24.5636C101.56 24.5636 102.348 24.3885 103.135 23.5135C104.098 22.3778 104.797 19.5802 104.797 16.7838C104.623 14.0731 104.011 11.3647 103.048 10.1397ZM125.529 24.3886C125.704 24.3016 125.792 24.2136 126.053 24.1266C126.753 23.8636 127.016 23.6897 127.191 22.7267C127.365 22.0278 127.365 20.8921 127.365 19.8421V13.635C127.365 11.9743 127.191 11.1885 126.84 10.6635C126.403 10.0516 125.791 9.70164 124.916 9.70164C123.341 9.70164 121.504 11.1004 121.242 13.81C121.242 14.3338 121.155 14.9457 121.155 15.6457V19.754C121.155 20.7159 121.067 21.8516 121.242 22.6386C121.416 23.6005 121.68 23.7743 122.379 24.0373C122.642 24.1254 122.729 24.2112 122.904 24.2112V24.2993H116.255V24.2112C116.431 24.2112 116.519 24.1254 116.78 24.0373C117.48 23.7743 117.742 23.6005 117.917 22.6386C118.091 21.9397 118.091 20.8028 118.091 19.754V13.5481C118.091 11.8862 117.917 11.0993 117.479 10.5754C117.042 9.96354 116.429 9.61354 115.555 9.61354C113.805 9.61354 112.143 11.0993 111.881 13.8088C111.793 14.6826 111.793 15.7314 111.793 16.7814V19.6647C111.793 20.6278 111.706 21.8505 111.881 22.5505C112.055 23.5124 112.318 23.5992 113.104 23.9492L113.629 24.1243V24.21H106.981V24.1243C107.155 24.1243 107.244 24.0361 107.505 23.9492C108.293 23.6873 108.468 23.5124 108.643 22.5505C108.817 21.8505 108.817 20.6278 108.817 19.6647V13.5469C108.817 12.9338 108.817 11.1874 108.73 10.6612C108.643 9.96236 108.467 9.78734 108.118 9.52544C107.767 9.26234 107.417 9.26235 107.154 9.17545V9.08855H111.615C111.789 9.08855 111.789 9.08854 111.789 9.26235L111.702 12.76C112.139 11.1874 112.927 10.3123 113.714 9.70044C114.327 9.26354 115.463 8.73854 116.688 8.73854C118.262 8.73854 119.399 9.17545 120.012 9.96117C120.362 10.3981 120.974 11.3612 120.974 12.8469C121.412 11.1862 122.287 10.2243 123.075 9.69926C123.861 9.08736 125.086 8.73736 125.961 8.73736C127.885 8.73736 128.848 9.34925 129.372 10.0493C129.809 10.5731 130.246 11.535 130.246 13.3707V19.6635C130.246 20.6266 130.246 21.7623 130.422 22.5493C130.595 23.5112 130.859 23.6861 131.558 23.948L132.082 24.1231V24.2088H125.522V24.3886H125.529ZM134.627 12.1504C134.277 12.1504 133.926 12.0647 133.577 11.9766C133.227 11.8028 132.964 11.6278 132.79 11.4528C132.527 11.1909 132.353 10.929 132.266 10.6659C132.091 10.3171 132.091 10.054 132.091 9.61712C132.091 9.26712 132.179 8.9171 132.266 8.56829C132.44 8.21829 132.615 7.9564 132.79 7.69449C133.052 7.4314 133.314 7.25759 133.664 7.1695C134.013 6.99569 134.364 6.99568 134.714 6.99568C135.064 6.99568 135.414 7.08379 135.763 7.1695C136.114 7.3445 136.377 7.52068 136.551 7.69449C136.814 7.95759 136.988 8.21831 137.075 8.48021C137.249 8.8314 137.249 9.09329 137.249 9.5302C137.249 9.8802 137.162 10.229 137.075 10.579C136.901 10.929 136.725 11.1921 136.551 11.4528C136.377 11.7135 136.027 11.8897 135.677 11.9766C135.326 12.1504 134.977 12.1504 134.627 12.1504ZM134.627 11.8885C134.977 11.8885 135.239 11.8016 135.59 11.7135C135.852 11.6278 136.114 11.4516 136.289 11.1909C136.464 11.0159 136.639 10.754 136.814 10.4909C136.901 10.2278 136.988 9.87902 136.988 9.61712C136.988 9.26712 136.901 9.0052 136.814 8.7433C136.72 8.45882 136.536 8.21292 136.289 8.0433C136.115 7.86949 135.852 7.6945 135.59 7.52069C135.326 7.43259 134.977 7.34568 134.715 7.34568C134.365 7.34568 134.103 7.43259 133.753 7.52069C133.468 7.61298 133.221 7.79671 133.052 8.0433C132.878 8.2183 132.703 8.4802 132.528 8.7433C132.441 9.00639 132.354 9.35521 132.354 9.61712C132.354 9.96593 132.441 10.229 132.528 10.4909C132.615 10.7528 132.791 11.0147 133.052 11.1909C133.227 11.3647 133.489 11.5397 133.753 11.7135C134.013 11.8016 134.364 11.8885 134.627 11.8885ZM133.577 8.0421H134.801C135.151 8.0421 135.501 8.13021 135.675 8.30521C135.849 8.48021 135.939 8.6552 135.939 8.9171C135.939 9.1802 135.85 9.35402 135.763 9.44211C135.677 9.61592 135.501 9.70402 135.326 9.79092L136.027 10.754H135.326L134.714 9.88021H134.277V10.754H133.664V8.0433H133.577V8.0421ZM134.802 9.35283C134.977 9.35283 135.065 9.35282 135.152 9.26591C135.239 9.17901 135.239 9.09212 135.239 9.00402C135.239 8.83021 135.239 8.74092 135.152 8.74092C135.065 8.65401 134.978 8.65402 134.802 8.65402H134.19V9.44092H134.802V9.35283Z" fill="#919191"></path></g><defs><clipPath id="clip0_51_764"><rect width="136.463" height="25" fill="white" transform="translate(0.791504)"></rect></clipPath></defs></svg>