<svg xmlns="http://www.w3.org/2000/svg" width="87" height="23" viewBox="0 0 87 23" fill="none"><g clip-path="url(#clip0_51_741)"><path d="M67.0883 0C68.3294 0 69.336 1.00915 69.336 2.25402C69.336 3.4989 68.3294 4.50805 67.0883 4.50805C65.8472 4.50805 64.8411 3.4989 64.8411 2.25402C64.8411 1.00915 65.8472 0 67.0883 0Z" fill="#919191"></path><path d="M22.9661 22.8126C19.6948 22.8126 18.0746 20.9373 18.0746 17.8125V9.56242H15.1145V6.34405H18.0746V2.21902L21.9689 1.25V6.34405H26.0501V9.56242H21.9689V17.4688C21.9689 18.7188 22.5298 19.2498 23.776 19.2498C24.586 19.2498 25.2401 19.2191 26.2995 19.094V22.3751C25.209 22.6564 24.1186 22.8126 22.9661 22.8126Z" fill="#919191"></path><path d="M36.879 9.81248C34.1376 9.81248 32.7042 11.7809 32.7042 14.4062V22.5936H28.7788V6.34397H32.0811L32.4237 8.78112C33.1719 6.90621 35.1033 6.125 37.0037 6.125C37.4089 6.125 37.814 6.15617 38.2188 6.2189V9.96872C37.7826 9.87521 37.3152 9.81248 36.879 9.81248Z" fill="#919191"></path><path d="M50.8719 22.5934L50.5914 20.4687C49.8125 22.0623 48.0054 22.9998 45.9493 22.9998C42.4908 22.9998 40.3411 20.6561 40.3411 17.1872V6.34375H44.2354V16.3121C44.2354 18.2186 44.9836 19.4062 47.0397 19.4062C47.9432 19.4062 48.5663 19.0621 49.0337 18.5934C49.9683 17.7183 50.2177 16.2498 50.2177 14.9375V6.34375H54.112V22.5934H50.8719Z" fill="#919191"></path><path d="M61.0856 22.781C58.437 22.781 56.6614 21.4999 56.6614 18.4062V0H60.5868V17.7501C60.5868 18.6875 60.8047 19.3121 62.1445 19.3121C62.4875 19.3121 62.5807 19.2813 62.7987 19.2813V22.5621C62.0202 22.7187 61.8644 22.781 61.0856 22.781Z" fill="#919191"></path><path d="M65.1106 22.5934V6.34375H69.0675V22.5934H65.1106Z" fill="#919191"></path><path d="M81.2554 15.3748L77.1428 15.6873C75.9592 15.7812 74.8062 16.4997 74.8062 17.8123C74.8062 19.0623 75.8966 19.8435 77.1117 19.8435C79.5419 19.8435 81.2554 18.5308 81.2554 16.1248V15.3748ZM84.5271 22.8437C82.8446 22.8437 81.9096 21.7811 81.7853 20.5624C81.0375 21.875 79.1682 22.9999 76.8627 22.9999C72.9991 22.9999 71.0051 20.5624 71.0051 17.9062C71.0051 14.8125 73.4043 13.0311 76.4886 12.8122L81.2554 12.4685V11.4687C81.2554 9.93747 80.726 8.90611 78.5137 8.90611C76.707 8.90611 75.6476 9.71849 75.554 11.2186H71.7844C72.0023 7.56227 74.8998 5.9375 78.5137 5.9375C81.2869 5.9375 83.6546 6.81261 84.5892 9.24977C84.9944 10.2811 85.0565 11.4372 85.0565 12.5312V18.5624C85.0565 19.312 85.3055 19.5937 85.9601 19.5937C86.2095 19.5937 86.4585 19.531 86.4585 19.531V22.4061C85.8043 22.6874 85.4617 22.8437 84.5271 22.8437Z" fill="#919191"></path><path d="M6.11247 9.27364C4.62544 9.27364 3.42044 8.065 3.42044 6.57349C3.42044 5.08237 4.62544 3.87373 6.11247 3.87373C7.59911 3.87373 8.80451 5.08237 8.80451 6.57349C8.80451 8.065 7.59911 9.27364 6.11247 9.27364ZM6.09344 0C2.51688 0.0198713 0.208252 2.42741 0.208252 6.06775C0.208252 9.08116 2.16804 11.6582 3.28525 15.5759C3.92466 17.8194 4.26884 20.566 4.44908 22.5936H7.73779C7.91804 20.566 8.26222 17.8194 8.90162 15.5759C10.0188 11.6582 11.9786 9.08116 11.9786 6.06775C11.9786 2.42741 9.67 0.0202609 6.09344 0Z" fill="#919191"></path></g><defs><clipPath id="clip0_51_741"><rect width="86.25" height="23" fill="white" transform="translate(0.208252)"></rect></clipPath></defs></svg>