<svg xmlns="http://www.w3.org/2000/svg" width="111" height="23" viewBox="0 0 111 23" fill="none"><g clip-path="url(#clip0_51_737)"><path d="M69.7944 15.5762C69.7944 11.3206 73.2292 8.16917 77.4298 8.16917C81.5905 8.16917 85.0254 11.3206 85.0254 15.5762C85.0254 19.8433 81.5905 23 77.4298 23C73.2292 22.9947 69.7944 19.8433 69.7944 15.5762ZM43.8596 3.10849V3.9711C43.8596 4.29315 43.7905 4.39135 43.7277 4.52318L35.5965 18.3596C35.5797 18.3826 35.5903 18.4171 35.6257 18.4171H44.2854V22.5346H28.6914V21.7295C28.6914 21.373 28.7374 21.2987 28.9331 20.9421L36.9722 7.29506C36.989 7.26674 36.9775 7.23755 36.943 7.23755H28.9384V3.10849H43.8596ZM93.9613 22.5293H89.7961L85.2671 8.52572H89.7439L91.039 12.7645C91.4701 14.1677 92.1952 16.8015 92.1952 16.8015C92.2067 16.836 92.2527 16.8299 92.258 16.8015C92.258 16.8015 93.0061 14.1155 93.4328 12.7645L94.7908 8.52572H98.0937L99.4287 12.7645C99.8775 14.2137 100.58 16.8015 100.58 16.8015C100.59 16.836 100.631 16.836 100.649 16.8015C100.649 16.8015 101.374 14.1845 101.805 12.7645L103.1 8.52572H107.26L102.76 22.5293H98.6691L97.5528 19.0098C97.1261 17.6297 96.3727 14.9498 96.3727 14.9498C96.3612 14.9153 96.3152 14.9153 96.3099 14.9498C96.3099 14.9498 95.5556 17.5775 95.1015 18.9868L93.9613 22.5293ZM51.703 22.5293H47.174V8.52572H51.703V22.5293ZM55.1379 1.12402H59.6669V22.5293H55.1379V1.12402ZM63.0212 1.12402H67.5502V22.5293H63.0212V1.12402ZM80.6814 15.5762C80.6814 13.4944 79.1906 12.0735 77.4298 12.0735C75.6292 12.0735 74.1384 13.4944 74.1384 15.5762C74.1384 17.6757 75.6292 19.078 77.4298 19.078C79.1906 19.0789 80.6814 17.6757 80.6814 15.5762ZM109.515 5.16727C108.583 5.16727 107.824 5.92637 107.824 6.858C107.824 7.78962 108.583 8.54873 109.515 8.54873C110.448 8.54873 111.207 7.78962 111.207 6.858C111.207 5.92637 110.448 5.16727 109.515 5.16727ZM109.515 8.22137C108.762 8.22137 108.151 7.61179 108.151 6.858C108.151 6.10509 108.761 5.4955 109.515 5.4955C110.269 5.4955 110.88 6.10509 110.88 6.858C110.88 7.61179 110.27 8.22137 109.515 8.22137ZM109.614 5.84586C110.005 5.84586 110.286 6.1334 110.286 6.53064C110.286 6.83499 110.12 7.07122 109.872 7.16854L110.258 7.80112H109.89L109.532 7.21454H109.216V7.80112H108.894V5.84586H109.614ZM109.596 6.1334H109.216V6.92701H109.596C109.809 6.92701 109.964 6.75979 109.964 6.53064C109.964 6.30061 109.809 6.1334 109.596 6.1334ZM49.4359 1.50977C50.8452 1.50977 52.0138 2.64842 52.0138 4.05161C52.0138 5.45481 50.8452 6.59346 49.4359 6.59346C48.0256 6.59346 46.858 5.45481 46.858 4.05161C46.8571 2.64842 48.0256 1.50977 49.4359 1.50977Z" fill="#919191"></path><path d="M5.58032 20.1665C5.49411 20.2126 5.4239 20.2011 5.35458 20.1318L3.42516 17.8341C3.37361 17.7701 3.36739 17.7355 3.43671 17.6378C4.92799 15.4555 7.97189 12.0546 9.91287 10.6175C9.94753 10.5944 9.93597 10.5651 9.89509 10.5828C7.87324 11.241 2.12584 13.7119 0 14.9128V22.7174H20.6869V15.2015C17.8679 15.6802 9.42229 18.192 5.58032 20.1665ZM13.9912 6.12588C14.0952 6.10279 14.1414 6.13742 14.2045 6.2067C14.5627 6.60462 15.7074 8.00175 16.0184 8.38278C16.0762 8.45206 16.0362 8.52756 15.99 8.56753C13.6793 10.3688 11.1082 12.9206 9.67558 14.7449C9.64714 14.7858 9.67025 14.7858 9.69335 14.7796C12.1889 13.7057 18.0518 11.9906 20.6922 11.5119V8.16962L10.3581 0L0.00622109 8.1634V11.8174C3.21186 9.91314 10.6292 6.96256 13.9912 6.12588Z" fill="#919191"></path></g><defs><clipPath id="clip0_51_737"><rect width="110.208" height="23" fill="white"></rect></clipPath></defs></svg>